Hubballi-Regular-21-22-23-25.ufo
<glyph name="J" format="1">
  <advance width="389"/>
  <unicode hex="004A"/>
  <outline>
    <contour>
      <point x="81" y="56" type="curve" smooth="yes"/>
      <point x="107" y="44"/>
      <point x="133" y="39"/>
      <point x="160" y="39" type="curve" smooth="yes"/>
      <point x="225" y="39"/>
      <point x="253" y="86"/>
      <point x="253" y="165" type="curve" smooth="yes"/>
      <point x="253" y="508" type="line" smooth="yes"/>
      <point x="253" y="522"/>
      <point x="265" y="533"/>
      <point x="278" y="533" type="curve" smooth="yes"/>
      <point x="292" y="533"/>
      <point x="303" y="522"/>
      <point x="303" y="508" type="curve" smooth="yes"/>
      <point x="303" y="165" type="line" smooth="yes"/>
      <point x="303" y="44"/>
      <point x="251" y="-11"/>
      <point x="160" y="-11" type="curve" smooth="yes"/>
      <point x="127" y="-11"/>
      <point x="93" y="-4"/>
      <point x="61" y="10" type="curve" smooth="yes"/>
      <point x="48" y="16"/>
      <point x="43" y="31"/>
      <point x="48" y="43" type="curve" smooth="yes"/>
      <point x="54" y="56"/>
      <point x="69" y="61"/>
    </contour>
  </outline>
</glyph>
<glyph name="L" format="1">
  <advance width="459"/>
  <unicode hex="004C"/>
  <outline>
    <contour>
      <point x="148" y="508" type="curve" smooth="yes"/>
      <point x="148" y="23" type="line" smooth="yes"/>
      <point x="148" y="9"/>
      <point x="137" y="-2"/>
      <point x="123" y="-2" type="curve" smooth="yes"/>
      <point x="110" y="-2"/>
      <point x="98" y="10"/>
      <point x="98" y="23" type="curve" smooth="yes"/>
      <point x="98" y="508" type="line" smooth="yes"/>
      <point x="98" y="522"/>
      <point x="110" y="533"/>
      <point x="123" y="533" type="curve" smooth="yes"/>
      <point x="137" y="533"/>
      <point x="148" y="522"/>
    </contour>
    <contour>
      <point x="131" y="48" type="curve" smooth="yes"/>
      <point x="394" y="48" type="line" smooth="yes"/>
      <point x="408" y="48"/>
      <point x="419" y="37"/>
      <point x="419" y="23" type="curve" smooth="yes"/>
      <point x="419" y="10"/>
      <point x="408" y="-2"/>
      <point x="394" y="-2" type="curve" smooth="yes"/>
      <point x="131" y="-2" type="line" smooth="yes"/>
      <point x="118" y="-2"/>
      <point x="106" y="10"/>
      <point x="106" y="23" type="curve" smooth="yes"/>
      <point x="106" y="37"/>
      <point x="118" y="48"/>
    </contour>
  </outline>
</glyph>
<glyph name="Q" format="1">
  <advance width="640"/>
  <unicode hex="0051"/>
  <outline>
    <contour>
      <point x="342" y="17" type="curve" smooth="yes"/>
      <point x="359" y="-47"/>
      <point x="421" y="-95"/>
      <point x="512" y="-95" type="curve" smooth="yes"/>
      <point x="526" y="-95"/>
      <point x="537" y="-107"/>
      <point x="537" y="-120" type="curve" smooth="yes"/>
      <point x="537" y="-134"/>
      <point x="526" y="-145"/>
      <point x="512" y="-145" type="curve" smooth="yes"/>
      <point x="391" y="-145"/>
      <point x="315" y="-77"/>
      <point x="294" y="5" type="curve" smooth="yes"/>
      <point x="290" y="18"/>
      <point x="299" y="32"/>
      <point x="312" y="35" type="curve" smooth="yes"/>
      <point x="325" y="39"/>
      <point x="339" y="30"/>
    </contour>
    <component base="O"/>
    <component base="O"/>
  </outline>
</glyph>
<glyph name="grave" format="1">
  <advance width="490"/>
  <unicode hex="0060"/>
  <outline>
    <contour>
      <point x="229" y="609" type="curve" smooth="yes"/>
      <point x="257" y="574"/>
      <point x="274" y="553"/>
      <point x="300" y="513" type="curve" smooth="yes"/>
      <point x="306" y="503"/>
      <point x="303" y="489"/>
      <point x="293" y="482" type="curve" smooth="yes"/>
      <point x="283" y="476"/>
      <point x="269" y="479"/>
      <point x="262" y="489" type="curve" smooth="yes"/>
      <point x="238" y="527"/>
      <point x="221" y="548"/>
      <point x="195" y="583" type="curve" smooth="yes"/>
      <point x="187" y="592"/>
      <point x="189" y="606"/>
      <point x="199" y="613" type="curve" smooth="yes"/>
      <point x="208" y="621"/>
      <point x="222" y="619"/>
    </contour>
  </outline>
</glyph>
<glyph name="t" format="1">
  <advance width="354"/>
  <unicode hex="0074"/>
  <outline>
    <contour>
      <point x="159" y="491" type="curve" smooth="yes"/>
      <point x="159" y="140" type="line" smooth="yes"/>
      <point x="159" y="79"/>
      <point x="200" y="50"/>
      <point x="279" y="48" type="curve" smooth="yes"/>
      <point x="293" y="48"/>
      <point x="304" y="36"/>
      <point x="304" y="23" type="curve" smooth="yes"/>
      <point x="304" y="9"/>
      <point x="292" y="-2"/>
      <point x="279" y="-2" type="curve" smooth="yes"/>
      <point x="156" y="0"/>
      <point x="109" y="53"/>
      <point x="109" y="140" type="curve" smooth="yes"/>
      <point x="109" y="491" type="line" smooth="yes"/>
      <point x="109" y="505"/>
      <point x="121" y="516"/>
      <point x="134" y="516" type="curve" smooth="yes"/>
      <point x="148" y="516"/>
      <point x="159" y="505"/>
    </contour>
    <contour>
      <point x="46" y="390" type="curve" smooth="yes"/>
      <point x="292" y="390" type="line" smooth="yes"/>
      <point x="306" y="390"/>
      <point x="317" y="379"/>
      <point x="317" y="365" type="curve" smooth="yes"/>
      <point x="317" y="352"/>
      <point x="306" y="340"/>
      <point x="292" y="340" type="curve" smooth="yes"/>
      <point x="46" y="340" type="line" smooth="yes"/>
      <point x="33" y="340"/>
      <point x="21" y="352"/>
      <point x="21" y="365" type="curve" smooth="yes"/>
      <point x="21" y="379"/>
      <point x="33" y="390"/>
    </contour>
  </outline>
</glyph>
<glyph name="w" format="1">
  <advance width="699"/>
  <unicode hex="0077"/>
  <outline>
    <contour>
      <point x="97" y="371" type="curve" smooth="yes"/>
      <point x="134" y="239"/>
      <point x="181" y="116"/>
      <point x="222" y="31" type="curve"/>
      <point x="199" y="45" type="line"/>
      <point x="201" y="45" type="line"/>
      <point x="179" y="31" type="line"/>
      <point x="221" y="116"/>
      <point x="289" y="254"/>
      <point x="322" y="361" type="curve" smooth="yes"/>
      <point x="326" y="374"/>
      <point x="341" y="382"/>
      <point x="353" y="378" type="curve" smooth="yes"/>
      <point x="366" y="374"/>
      <point x="374" y="359"/>
      <point x="370" y="347" type="curve" smooth="yes"/>
      <point x="335" y="236"/>
      <point x="267" y="96"/>
      <point x="223" y="9" type="curve" smooth="yes"/>
      <point x="220" y="1"/>
      <point x="210" y="-5"/>
      <point x="201" y="-5" type="curve" smooth="yes"/>
      <point x="199" y="-5" type="line" smooth="yes"/>
      <point x="190" y="-5"/>
      <point x="180" y="1"/>
      <point x="176" y="9" type="curve" smooth="yes"/>
      <point x="135" y="96"/>
      <point x="86" y="223"/>
      <point x="49" y="357" type="curve" smooth="yes"/>
      <point x="45" y="370"/>
      <point x="53" y="384"/>
      <point x="66" y="388" type="curve" smooth="yes"/>
      <point x="79" y="392"/>
      <point x="93" y="384"/>
    </contour>
    <contour>
      <point x="377" y="362" type="curve" smooth="yes"/>
      <point x="423" y="231"/>
      <point x="476" y="116"/>
      <point x="521" y="31" type="curve"/>
      <point x="499" y="44" type="line"/>
      <point x="501" y="44" type="line"/>
      <point x="478" y="29" type="line"/>
      <point x="517" y="114"/>
      <point x="570" y="251"/>
      <point x="603" y="370" type="curve" smooth="yes"/>
      <point x="606" y="383"/>
      <point x="621" y="391"/>
      <point x="634" y="387" type="curve" smooth="yes"/>
      <point x="647" y="384"/>
      <point x="655" y="369"/>
      <point x="651" y="356" type="curve" smooth="yes"/>
      <point x="618" y="235"/>
      <point x="563" y="96"/>
      <point x="524" y="9" type="curve" smooth="yes"/>
      <point x="520" y="1"/>
      <point x="510" y="-6"/>
      <point x="501" y="-6" type="curve" smooth="yes"/>
      <point x="499" y="-6" type="line" smooth="yes"/>
      <point x="491" y="-6"/>
      <point x="481" y="0"/>
      <point x="477" y="7" type="curve" smooth="yes"/>
      <point x="430" y="94"/>
      <point x="377" y="211"/>
      <point x="329" y="346" type="curve" smooth="yes"/>
      <point x="325" y="358"/>
      <point x="332" y="373"/>
      <point x="345" y="378" type="curve" smooth="yes"/>
      <point x="357" y="382"/>
      <point x="372" y="375"/>
    </contour>
  </outline>
</glyph>
<glyph name="bar" format="1">
  <advance width="300"/>
  <unicode hex="007C"/>
  <outline>
    <contour>
      <point x="175" y="604" type="curve" smooth="yes"/>
      <point x="175" y="-78" type="line" smooth="yes"/>
      <point x="175" y="-92"/>
      <point x="164" y="-103"/>
      <point x="150" y="-103" type="curve" smooth="yes"/>
      <point x="137" y="-103"/>
      <point x="125" y="-92"/>
      <point x="125" y="-78" type="curve" smooth="yes"/>
      <point x="125" y="604" type="line" smooth="yes"/>
      <point x="125" y="618"/>
      <point x="137" y="629"/>
      <point x="150" y="629" type="curve" smooth="yes"/>
      <point x="164" y="629"/>
      <point x="175" y="618"/>
    </contour>
  </outline>
</glyph>
<glyph name="section" format="1">
  <advance width="525"/>
  <unicode hex="00A7"/>
  <outline>
    <contour>
      <point x="385" y="466" type="curve" smooth="yes"/>
      <point x="341" y="480"/>
      <point x="309" y="489"/>
      <point x="243" y="489" type="curve" smooth="yes"/>
      <point x="183" y="489"/>
      <point x="132" y="464"/>
      <point x="132" y="428" type="curve" smooth="yes"/>
      <point x="132" y="393"/>
      <point x="164" y="360"/>
      <point x="268" y="345" type="curve" smooth="yes"/>
      <point x="416" y="316"/>
      <point x="452" y="261"/>
      <point x="452" y="201" type="curve" smooth="yes"/>
      <point x="452" y="140"/>
      <point x="407" y="80"/>
      <point x="263" y="80" type="curve" smooth="yes"/>
      <point x="250" y="80"/>
      <point x="238" y="92"/>
      <point x="238" y="105" type="curve" smooth="yes"/>
      <point x="238" y="119"/>
      <point x="250" y="130"/>
      <point x="263" y="130" type="curve" smooth="yes"/>
      <point x="347" y="130"/>
      <point x="402" y="156"/>
      <point x="402" y="201" type="curve" smooth="yes"/>
      <point x="402" y="247"/>
      <point x="356" y="276"/>
      <point x="260" y="295" type="curve" smooth="yes"/>
      <point x="96" y="320"/>
      <point x="82" y="381"/>
      <point x="82" y="428" type="curve" smooth="yes"/>
      <point x="82" y="480"/>
      <point x="133" y="539"/>
      <point x="243" y="539" type="curve" smooth="yes"/>
      <point x="315" y="539"/>
      <point x="351" y="530"/>
      <point x="401" y="514" type="curve" smooth="yes"/>
      <point x="413" y="510"/>
      <point x="421" y="495"/>
      <point x="417" y="482" type="curve" smooth="yes"/>
      <point x="413" y="470"/>
      <point x="398" y="462"/>
    </contour>
    <contour>
      <point x="233" y="296" type="curve" smooth="yes"/>
      <point x="169" y="296"/>
      <point x="122" y="271"/>
      <point x="122" y="221" type="curve" smooth="yes"/>
      <point x="122" y="183"/>
      <point x="153" y="148"/>
      <point x="258" y="130" type="curve" smooth="yes"/>
      <point x="409" y="104"/>
      <point x="442" y="62"/>
      <point x="442" y="1" type="curve" smooth="yes"/>
      <point x="442" y="-60"/>
      <point x="395" y="-125"/>
      <point x="253" y="-125" type="curve" smooth="yes"/>
      <point x="189" y="-125"/>
      <point x="129" y="-113"/>
      <point x="74" y="-88" type="curve" smooth="yes"/>
      <point x="61" y="-82"/>
      <point x="56" y="-67"/>
      <point x="61" y="-55" type="curve" smooth="yes"/>
      <point x="67" y="-42"/>
      <point x="82" y="-37"/>
      <point x="94" y="-42" type="curve" smooth="yes"/>
      <point x="143" y="-65"/>
      <point x="197" y="-75"/>
      <point x="253" y="-75" type="curve" smooth="yes"/>
      <point x="339" y="-75"/>
      <point x="392" y="-44"/>
      <point x="392" y="1" type="curve" smooth="yes"/>
      <point x="392" y="48"/>
      <point x="343" y="64"/>
      <point x="250" y="80" type="curve" smooth="yes"/>
      <point x="87" y="108"/>
      <point x="72" y="171"/>
      <point x="72" y="221" type="curve" smooth="yes"/>
      <point x="72" y="293"/>
      <point x="127" y="346"/>
      <point x="233" y="346" type="curve" smooth="yes"/>
      <point x="247" y="346"/>
      <point x="258" y="335"/>
      <point x="258" y="321" type="curve" smooth="yes"/>
      <point x="258" y="308"/>
      <point x="247" y="296"/>
    </contour>
  </outline>
</glyph>
<glyph name="caron" format="1">
  <advance width="490"/>
  <unicode hex="02C7"/>
  <outline>
    <contour>
      <point x="170" y="604" type="curve" smooth="yes"/>
      <point x="196" y="578"/>
      <point x="232" y="541"/>
      <point x="256" y="517" type="curve" smooth="yes"/>
      <point x="264" y="508"/>
      <point x="264" y="494"/>
      <point x="256" y="485" type="curve" smooth="yes"/>
      <point x="247" y="477"/>
      <point x="233" y="477"/>
      <point x="224" y="485" type="curve" smooth="yes"/>
      <point x="200" y="509"/>
      <point x="164" y="546"/>
      <point x="138" y="572" type="curve" smooth="yes"/>
      <point x="130" y="581"/>
      <point x="130" y="595"/>
      <point x="138" y="604" type="curve" smooth="yes"/>
      <point x="147" y="612"/>
      <point x="161" y="612"/>
    </contour>
    <contour>
      <point x="230" y="517" type="curve" smooth="yes"/>
      <point x="253" y="540"/>
      <point x="290" y="578"/>
      <point x="316" y="604" type="curve" smooth="yes"/>
      <point x="325" y="612"/>
      <point x="339" y="612"/>
      <point x="348" y="604" type="curve" smooth="yes"/>
      <point x="356" y="595"/>
      <point x="356" y="581"/>
      <point x="348" y="572" type="curve" smooth="yes"/>
      <point x="322" y="546"/>
      <point x="285" y="508"/>
      <point x="262" y="485" type="curve" smooth="yes"/>
      <point x="253" y="477"/>
      <point x="239" y="477"/>
      <point x="230" y="485" type="curve" smooth="yes"/>
      <point x="222" y="494"/>
      <point x="222" y="508"/>
    </contour>
  </outline>
</glyph>
<glyph name="knA" format="1">
  <advance width="773"/>
  <unicode hex="0C85"/>
  <outline>
    <contour>
      <point x="338" y="227" type="curve" smooth="yes"/>
      <point x="550" y="227" type="line" smooth="yes"/>
      <point x="562" y="227"/>
      <point x="573" y="216"/>
      <point x="573" y="204" type="curve" smooth="yes"/>
      <point x="573" y="192"/>
      <point x="562" y="181"/>
      <point x="550" y="181" type="curve" smooth="yes"/>
      <point x="338" y="181" type="line" smooth="yes"/>
      <point x="326" y="181"/>
      <point x="315" y="192"/>
      <point x="315" y="204" type="curve" smooth="yes"/>
      <point x="315" y="216"/>
      <point x="326" y="227"/>
    </contour>
    <contour>
      <point x="131" y="356" type="curve" smooth="yes"/>
      <point x="158" y="321"/>
      <point x="190" y="299"/>
      <point x="226" y="299" type="curve" smooth="yes"/>
      <point x="263" y="299"/>
      <point x="293" y="322"/>
      <point x="293" y="359" type="curve" smooth="yes"/>
      <point x="293" y="396"/>
      <point x="267" y="425"/>
      <point x="224" y="425" type="curve" smooth="yes"/>
      <point x="160" y="425"/>
      <point x="118" y="334"/>
      <point x="118" y="249" type="curve" smooth="yes"/>
      <point x="118" y="136"/>
      <point x="212" y="46"/>
      <point x="376" y="46" type="curve" smooth="yes"/>
      <point x="574" y="46"/>
      <point x="660" y="138"/>
      <point x="660" y="259" type="curve" smooth="yes"/>
      <point x="660" y="358"/>
      <point x="608" y="414"/>
      <point x="557" y="414" type="curve" smooth="yes"/>
      <point x="512" y="414"/>
      <point x="489" y="380"/>
      <point x="489" y="343" type="curve" smooth="yes"/>
      <point x="489" y="299"/>
      <point x="519" y="263"/>
      <point x="563" y="223" type="curve" smooth="yes"/>
      <point x="573" y="215"/>
      <point x="573" y="200"/>
      <point x="565" y="191" type="curve" smooth="yes"/>
      <point x="557" y="181"/>
      <point x="542" y="181"/>
      <point x="533" y="189" type="curve" smooth="yes"/>
      <point x="475" y="241"/>
      <point x="443" y="289"/>
      <point x="443" y="343" type="curve" smooth="yes"/>
      <point x="443" y="404"/>
      <point x="484" y="460"/>
      <point x="557" y="460" type="curve" smooth="yes"/>
      <point x="624" y="460"/>
      <point x="706" y="402"/>
      <point x="706" y="259" type="curve" smooth="yes"/>
      <point x="706" y="118"/>
      <point x="616" y="0"/>
      <point x="376" y="0" type="curve" smooth="yes"/>
      <point x="174" y="0"/>
      <point x="72" y="116"/>
      <point x="72" y="249" type="curve" smooth="yes"/>
      <point x="72" y="370"/>
      <point x="144" y="471"/>
      <point x="224" y="471" type="curve" smooth="yes"/>
      <point x="297" y="471"/>
      <point x="339" y="420"/>
      <point x="339" y="359" type="curve" smooth="yes"/>
      <point x="339" y="296"/>
      <point x="291" y="253"/>
      <point x="226" y="253" type="curve" smooth="yes"/>
      <point x="178" y="253"/>
      <point x="132" y="279"/>
      <point x="95" y="328" type="curve" smooth="yes"/>
      <point x="87" y="338"/>
      <point x="89" y="353"/>
      <point x="99" y="360" type="curve" smooth="yes"/>
      <point x="109" y="368"/>
      <point x="124" y="366"/>
    </contour>
  </outline>
</glyph>
<glyph name="knEE" format="1">
  <advance width="730"/>
  <unicode hex="0C8F"/>
  <outline>
    <contour>
      <point x="166" y="473" type="curve" smooth="yes"/>
      <point x="166" y="414"/>
      <point x="203" y="368"/>
      <point x="261" y="368" type="curve" smooth="yes"/>
      <point x="311" y="368"/>
      <point x="340" y="403"/>
      <point x="357" y="454" type="curve" smooth="yes"/>
      <point x="361" y="466"/>
      <point x="374" y="473"/>
      <point x="386" y="469" type="curve" smooth="yes"/>
      <point x="398" y="465"/>
      <point x="405" y="452"/>
      <point x="401" y="440" type="curve" smooth="yes"/>
      <point x="376" y="365"/>
      <point x="331" y="322"/>
      <point x="261" y="322" type="curve" smooth="yes"/>
      <point x="177" y="322"/>
      <point x="120" y="386"/>
      <point x="120" y="473" type="curve" smooth="yes"/>
      <point x="120" y="485"/>
      <point x="131" y="496"/>
      <point x="143" y="496" type="curve" smooth="yes"/>
      <point x="155" y="496"/>
      <point x="166" y="485"/>
    </contour>
    <contour>
      <point x="192" y="193" type="curve" smooth="yes"/>
      <point x="145" y="186"/>
      <point x="116" y="156"/>
      <point x="116" y="118" type="curve" smooth="yes"/>
      <point x="116" y="76"/>
      <point x="152" y="46"/>
      <point x="204" y="46" type="curve" smooth="yes"/>
      <point x="271" y="46"/>
      <point x="309" y="75"/>
      <point x="341" y="135" type="curve" smooth="yes"/>
      <point x="344" y="142"/>
      <point x="353" y="147"/>
      <point x="361" y="147" type="curve" smooth="yes"/>
      <point x="366" y="147" type="line" smooth="yes"/>
      <point x="373" y="147"/>
      <point x="382" y="142"/>
      <point x="386" y="136" type="curve" smooth="yes"/>
      <point x="421" y="74"/>
      <point x="456" y="46"/>
      <point x="511" y="46" type="curve" smooth="yes"/>
      <point x="571" y="46"/>
      <point x="620" y="90"/>
      <point x="619" y="168" type="curve" smooth="yes"/>
      <point x="618" y="279"/>
      <point x="544" y="391"/>
      <point x="376" y="429" type="curve" smooth="yes"/>
      <point x="364" y="431"/>
      <point x="356" y="444"/>
      <point x="359" y="456" type="curve" smooth="yes"/>
      <point x="361" y="468"/>
      <point x="374" y="476"/>
      <point x="386" y="473" type="curve" smooth="yes"/>
      <point x="582" y="429"/>
      <point x="664" y="297"/>
      <point x="665" y="168" type="curve" smooth="yes"/>
      <point x="666" y="58"/>
      <point x="593" y="0"/>
      <point x="511" y="0" type="curve" smooth="yes"/>
      <point x="440" y="0"/>
      <point x="393" y="32"/>
      <point x="346" y="112" type="curve"/>
      <point x="366" y="101" type="line"/>
      <point x="361" y="101" type="line"/>
      <point x="381" y="113" type="line"/>
      <point x="339" y="35"/>
      <point x="289" y="0"/>
      <point x="204" y="0" type="curve" smooth="yes"/>
      <point x="120" y="0"/>
      <point x="70" y="54"/>
      <point x="70" y="118" type="curve" smooth="yes"/>
      <point x="70" y="176"/>
      <point x="109" y="228"/>
      <point x="186" y="239" type="curve" smooth="yes"/>
      <point x="198" y="241"/>
      <point x="210" y="232"/>
      <point x="212" y="219" type="curve" smooth="yes"/>
      <point x="214" y="207"/>
      <point x="205" y="195"/>
    </contour>
  </outline>
</glyph>
<glyph name="knSHA" format="1">
  <advance width="649"/>
  <unicode hex="0CB6"/>
  <outline>
    <contour>
      <point x="89" y="456" type="curve" smooth="yes"/>
      <point x="438" y="456" type="line" smooth="yes"/>
      <point x="501" y="456"/>
      <point x="539" y="478"/>
      <point x="566" y="523" type="curve" smooth="yes"/>
      <point x="573" y="534"/>
      <point x="587" y="537"/>
      <point x="598" y="531" type="curve" smooth="yes"/>
      <point x="609" y="524"/>
      <point x="612" y="510"/>
      <point x="606" y="499" type="curve" smooth="yes"/>
      <point x="569" y="440"/>
      <point x="521" y="410"/>
      <point x="438" y="410" type="curve" smooth="yes"/>
      <point x="89" y="410" type="line" smooth="yes"/>
      <point x="77" y="410"/>
      <point x="66" y="421"/>
      <point x="66" y="433" type="curve" smooth="yes"/>
      <point x="66" y="445"/>
      <point x="77" y="456"/>
    </contour>
    <contour>
      <point x="158" y="354" type="curve" smooth="yes"/>
      <point x="182" y="409"/>
      <point x="226" y="442"/>
      <point x="274" y="442" type="curve" smooth="yes"/>
      <point x="332" y="442"/>
      <point x="385" y="398"/>
      <point x="385" y="331" type="curve" smooth="yes"/>
      <point x="385" y="265"/>
      <point x="347" y="213"/>
      <point x="259" y="203" type="curve" smooth="yes"/>
      <point x="183" y="195"/>
      <point x="156" y="185"/>
      <point x="141" y="170" type="curve" smooth="yes"/>
      <point x="130" y="159"/>
      <point x="125" y="144"/>
      <point x="125" y="126" type="curve" smooth="yes"/>
      <point x="125" y="85"/>
      <point x="178" y="46"/>
      <point x="294" y="46" type="curve" smooth="yes"/>
      <point x="387" y="46"/>
      <point x="450" y="78"/>
      <point x="474" y="102" type="curve" smooth="yes"/>
      <point x="498" y="126"/>
      <point x="515" y="158"/>
      <point x="515" y="197" type="curve" smooth="yes"/>
      <point x="515" y="272"/>
      <point x="461" y="361"/>
      <point x="346" y="412" type="curve" smooth="yes"/>
      <point x="334" y="417"/>
      <point x="329" y="431"/>
      <point x="334" y="442" type="curve" smooth="yes"/>
      <point x="339" y="454"/>
      <point x="353" y="459"/>
      <point x="364" y="454" type="curve" smooth="yes"/>
      <point x="503" y="393"/>
      <point x="561" y="284"/>
      <point x="561" y="197" type="curve" smooth="yes"/>
      <point x="561" y="144"/>
      <point x="538" y="102"/>
      <point x="506" y="70" type="curve" smooth="yes"/>
      <point x="478" y="42"/>
      <point x="405" y="0"/>
      <point x="294" y="0" type="curve" smooth="yes"/>
      <point x="112" y="0"/>
      <point x="79" y="73"/>
      <point x="79" y="126" type="curve" smooth="yes"/>
      <point x="79" y="158"/>
      <point x="90" y="183"/>
      <point x="109" y="202" type="curve" smooth="yes"/>
      <point x="128" y="221"/>
      <point x="157" y="239"/>
      <point x="253" y="249" type="curve" smooth="yes"/>
      <point x="311" y="255"/>
      <point x="339" y="287"/>
      <point x="339" y="331" type="curve" smooth="yes"/>
      <point x="339" y="370"/>
      <point x="308" y="396"/>
      <point x="274" y="396" type="curve" smooth="yes"/>
      <point x="242" y="396"/>
      <point x="216" y="371"/>
      <point x="200" y="336" type="curve" smooth="yes"/>
      <point x="195" y="324"/>
      <point x="181" y="319"/>
      <point x="170" y="324" type="curve" smooth="yes"/>
      <point x="158" y="329"/>
      <point x="153" y="343"/>
    </contour>
  </outline>
</glyph>
<glyph name="knsignI" format="1">
  <advance width="0"/>
  <unicode hex="0CBF"/>
  <outline>
    <contour>
      <point x="-358" y="329" type="curve" smooth="yes"/>
      <point x="-257" y="329"/>
      <point x="-198" y="388"/>
      <point x="-198" y="469" type="curve" smooth="yes"/>
      <point x="-198" y="527"/>
      <point x="-238" y="588"/>
      <point x="-297" y="588" type="curve" smooth="yes"/>
      <point x="-338" y="588"/>
      <point x="-365" y="560"/>
      <point x="-365" y="526" type="curve" smooth="yes"/>
      <point x="-365" y="492"/>
      <point x="-337" y="469"/>
      <point x="-303" y="469" type="curve" smooth="yes"/>
      <point x="-264" y="469"/>
      <point x="-235" y="487"/>
      <point x="-203" y="528" type="curve" smooth="yes"/>
      <point x="-196" y="538"/>
      <point x="-181" y="540"/>
      <point x="-171" y="532" type="curve" smooth="yes"/>
      <point x="-161" y="525"/>
      <point x="-159" y="510"/>
      <point x="-167" y="500" type="curve" smooth="yes"/>
      <point x="-209" y="445"/>
      <point x="-250" y="423"/>
      <point x="-303" y="423" type="curve" smooth="yes"/>
      <point x="-365" y="423"/>
      <point x="-411" y="468"/>
      <point x="-411" y="526" type="curve" smooth="yes"/>
      <point x="-411" y="582"/>
      <point x="-368" y="634"/>
      <point x="-297" y="634" type="curve" smooth="yes"/>
      <point x="-216" y="634"/>
      <point x="-152" y="553"/>
      <point x="-152" y="469" type="curve" smooth="yes"/>
      <point x="-152" y="364"/>
      <point x="-223" y="283"/>
      <point x="-358" y="283" type="curve" smooth="yes"/>
      <point x="-370" y="283"/>
      <point x="-381" y="294"/>
      <point x="-381" y="306" type="curve" smooth="yes"/>
      <point x="-381" y="318"/>
      <point x="-370" y="329"/>
    </contour>
  </outline>
</glyph>
<glyph name="knsignvRR" format="1">
  <advance width="446"/>
  <unicode hex="0CC4"/>
  <outline>
    <contour>
      <point x="54" y="70" type="curve" smooth="yes"/>
      <point x="200" y="70" type="line" smooth="yes"/>
      <point x="342" y="70"/>
      <point x="397" y="2"/>
      <point x="397" y="-82" type="curve" smooth="yes"/>
      <point x="397" y="-168"/>
      <point x="348" y="-213"/>
      <point x="291" y="-213" type="curve" smooth="yes"/>
      <point x="230" y="-213"/>
      <point x="197" y="-171"/>
      <point x="197" y="-127" type="curve" smooth="yes"/>
      <point x="197" y="-76"/>
      <point x="234" y="-27"/>
      <point x="307" y="-27" type="curve" smooth="yes"/>
      <point x="331" y="-27"/>
      <point x="358" y="-30"/>
      <point x="379" y="-37" type="curve" smooth="yes"/>
      <point x="390" y="-41"/>
      <point x="396" y="-54"/>
      <point x="392" y="-64" type="curve" smooth="yes"/>
      <point x="388" y="-75"/>
      <point x="375" y="-81"/>
      <point x="365" y="-77" type="curve" smooth="yes"/>
      <point x="348" y="-70"/>
      <point x="327" y="-69"/>
      <point x="307" y="-69" type="curve" smooth="yes"/>
      <point x="264" y="-69"/>
      <point x="239" y="-96"/>
      <point x="239" y="-127" type="curve" smooth="yes"/>
      <point x="239" y="-151"/>
      <point x="260" y="-171"/>
      <point x="291" y="-171" type="curve" smooth="yes"/>
      <point x="330" y="-171"/>
      <point x="355" y="-134"/>
      <point x="355" y="-82" type="curve" smooth="yes"/>
      <point x="355" y="-16"/>
      <point x="302" y="28"/>
      <point x="200" y="28" type="curve" smooth="yes"/>
      <point x="54" y="28" type="line" smooth="yes"/>
      <point x="43" y="28"/>
      <point x="33" y="38"/>
      <point x="33" y="49" type="curve" smooth="yes"/>
      <point x="33" y="60"/>
      <point x="43" y="70"/>
    </contour>
    <component base="knsignvR"/>
    <component base="knsignvR"/>
  </outline>
</glyph>
<glyph name="knVirama" format="1">
  <advance width="280"/>
  <unicode hex="0CCD"/>
  <outline>
    <contour>
      <point x="-208" y="456" type="curve" smooth="yes"/>
      <point x="91" y="456" type="line" smooth="yes"/>
      <point x="199" y="456"/>
      <point x="239" y="390"/>
      <point x="239" y="333" type="curve" smooth="yes"/>
      <point x="239" y="265"/>
      <point x="194" y="223"/>
      <point x="130" y="223" type="curve" smooth="yes"/>
      <point x="68" y="223"/>
      <point x="13" y="270"/>
      <point x="13" y="345" type="curve" smooth="yes"/>
      <point x="13" y="411"/>
      <point x="38" y="499"/>
      <point x="173" y="572" type="curve" smooth="yes"/>
      <point x="184" y="578"/>
      <point x="198" y="574"/>
      <point x="204" y="563" type="curve" smooth="yes"/>
      <point x="210" y="552"/>
      <point x="206" y="538"/>
      <point x="195" y="532" type="curve" smooth="yes"/>
      <point x="84" y="471"/>
      <point x="59" y="401"/>
      <point x="59" y="345" type="curve" smooth="yes"/>
      <point x="59" y="300"/>
      <point x="92" y="269"/>
      <point x="130" y="269" type="curve" smooth="yes"/>
      <point x="168" y="269"/>
      <point x="193" y="293"/>
      <point x="193" y="333" type="curve" smooth="yes"/>
      <point x="193" y="372"/>
      <point x="159" y="410"/>
      <point x="91" y="410" type="curve" smooth="yes"/>
      <point x="-208" y="410" type="line" smooth="yes"/>
      <point x="-220" y="410"/>
      <point x="-231" y="421"/>
      <point x="-231" y="433" type="curve" smooth="yes"/>
      <point x="-231" y="445"/>
      <point x="-220" y="456"/>
    </contour>
  </outline>
</glyph>
<glyph name="knJihvamuliya" format="1">
  <advance width="568"/>
  <unicode hex="0CF1"/>
  <outline>
    <contour>
      <point x="69" y="433" type="line" smooth="yes"/>
      <point x="69" y="446"/>
      <point x="79" y="456"/>
      <point x="92" y="456" type="curve" smooth="yes"/>
      <point x="475" y="456" type="line" smooth="yes"/>
      <point x="488" y="456"/>
      <point x="498" y="446"/>
      <point x="498" y="433" type="curve" smooth="yes"/>
      <point x="498" y="427" type="line" smooth="yes"/>
      <point x="498" y="422"/>
      <point x="495" y="415"/>
      <point x="492" y="411" type="curve" smooth="yes"/>
      <point x="109" y="13" type="line"/>
      <point x="115" y="29" type="line"/>
      <point x="115" y="23" type="line"/>
      <point x="92" y="46" type="line"/>
      <point x="476" y="46" type="line"/>
      <point x="453" y="23" type="line"/>
      <point x="453" y="29" type="line"/>
      <point x="459" y="13" type="line"/>
      <point x="75" y="411" type="line" smooth="yes"/>
      <point x="72" y="415"/>
      <point x="69" y="422"/>
      <point x="69" y="427" type="curve" smooth="yes"/>
    </contour>
    <contour>
      <point x="115" y="433" type="line"/>
      <point x="115" y="427" type="line"/>
      <point x="109" y="443" type="line"/>
      <point x="493" y="45" type="line" smooth="yes"/>
      <point x="496" y="41"/>
      <point x="499" y="34"/>
      <point x="499" y="29" type="curve" smooth="yes"/>
      <point x="499" y="23" type="line" smooth="yes"/>
      <point x="499" y="10"/>
      <point x="489" y="0"/>
      <point x="476" y="0" type="curve" smooth="yes"/>
      <point x="92" y="0" type="line" smooth="yes"/>
      <point x="79" y="0"/>
      <point x="69" y="10"/>
      <point x="69" y="23" type="curve" smooth="yes"/>
      <point x="69" y="29" type="line" smooth="yes"/>
      <point x="69" y="34"/>
      <point x="72" y="41"/>
      <point x="75" y="45" type="curve" smooth="yes"/>
      <point x="458" y="443" type="line"/>
      <point x="452" y="427" type="line"/>
      <point x="452" y="433" type="line"/>
      <point x="475" y="410" type="line"/>
      <point x="92" y="410" type="line"/>
    </contour>
  </outline>
</glyph>
<glyph name="quotedblright" format="1">
  <advance width="406"/>
  <unicode hex="201D"/>
  <outline>
    <contour>
      <point x="309" y="573" type="curve" smooth="yes"/>
      <point x="314" y="555"/>
      <point x="316" y="537"/>
      <point x="316" y="510" type="curve" smooth="yes"/>
      <point x="316" y="466"/>
      <point x="298" y="415"/>
      <point x="269" y="377" type="curve" smooth="yes"/>
      <point x="261" y="366"/>
      <point x="245" y="364"/>
      <point x="234" y="372" type="curve" smooth="yes"/>
      <point x="223" y="380"/>
      <point x="221" y="396"/>
      <point x="229" y="407" type="curve" smooth="yes"/>
      <point x="252" y="437"/>
      <point x="266" y="476"/>
      <point x="266" y="510" type="curve" smooth="yes"/>
      <point x="266" y="531"/>
      <point x="264" y="547"/>
      <point x="261" y="561" type="curve" smooth="yes"/>
      <point x="257" y="574"/>
      <point x="266" y="588"/>
      <point x="279" y="591" type="curve" smooth="yes"/>
      <point x="292" y="595"/>
      <point x="306" y="586"/>
    </contour>
    <contour>
      <point x="149" y="573" type="curve" smooth="yes"/>
      <point x="154" y="555"/>
      <point x="156" y="537"/>
      <point x="156" y="510" type="curve" smooth="yes"/>
      <point x="156" y="466"/>
      <point x="138" y="415"/>
      <point x="109" y="377" type="curve" smooth="yes"/>
      <point x="101" y="366"/>
      <point x="85" y="364"/>
      <point x="74" y="372" type="curve" smooth="yes"/>
      <point x="63" y="380"/>
      <point x="61" y="396"/>
      <point x="69" y="407" type="curve" smooth="yes"/>
      <point x="92" y="437"/>
      <point x="106" y="476"/>
      <point x="106" y="510" type="curve" smooth="yes"/>
      <point x="106" y="531"/>
      <point x="104" y="547"/>
      <point x="101" y="561" type="curve" smooth="yes"/>
      <point x="97" y="574"/>
      <point x="106" y="588"/>
      <point x="119" y="591" type="curve" smooth="yes"/>
      <point x="132" y="595"/>
      <point x="146" y="586"/>
    </contour>
  </outline>
</glyph>
<glyph name="dagger" format="1">
  <advance width="492"/>
  <unicode hex="2020"/>
  <outline>
    <contour>
      <point x="271" y="508" type="curve" smooth="yes"/>
      <point x="271" y="23" type="line" smooth="yes"/>
      <point x="271" y="9"/>
      <point x="260" y="-2"/>
      <point x="246" y="-2" type="curve" smooth="yes"/>
      <point x="233" y="-2"/>
      <point x="221" y="10"/>
      <point x="221" y="23" type="curve" smooth="yes"/>
      <point x="221" y="508" type="line" smooth="yes"/>
      <point x="221" y="522"/>
      <point x="233" y="533"/>
      <point x="246" y="533" type="curve" smooth="yes"/>
      <point x="260" y="533"/>
      <point x="271" y="522"/>
    </contour>
    <contour>
      <point x="95" y="405" type="curve" smooth="yes"/>
      <point x="397" y="405" type="line" smooth="yes"/>
      <point x="411" y="405"/>
      <point x="422" y="394"/>
      <point x="422" y="380" type="curve" smooth="yes"/>
      <point x="422" y="367"/>
      <point x="411" y="355"/>
      <point x="397" y="355" type="curve" smooth="yes"/>
      <point x="95" y="355" type="line" smooth="yes"/>
      <point x="82" y="355"/>
      <point x="70" y="367"/>
      <point x="70" y="380" type="curve" smooth="yes"/>
      <point x="70" y="394"/>
      <point x="82" y="405"/>
    </contour>
  </outline>
</glyph>
<glyph name="product" format="1">
  <advance width="580"/>
  <unicode hex="220F"/>
  <outline>
    <contour>
      <point x="428" y="23" type="curve" smooth="yes"/>
      <point x="428" y="508" type="line"/>
      <point x="453" y="483" type="line"/>
      <point x="123" y="483" type="line"/>
      <point x="148" y="508" type="line"/>
      <point x="148" y="23" type="line" smooth="yes"/>
      <point x="148" y="9"/>
      <point x="137" y="-2"/>
      <point x="123" y="-2" type="curve" smooth="yes"/>
      <point x="110" y="-2"/>
      <point x="98" y="10"/>
      <point x="98" y="23" type="curve" smooth="yes"/>
      <point x="98" y="508" type="line" smooth="yes"/>
      <point x="98" y="522"/>
      <point x="109" y="533"/>
      <point x="123" y="533" type="curve" smooth="yes"/>
      <point x="453" y="533" type="line" smooth="yes"/>
      <point x="467" y="533"/>
      <point x="478" y="522"/>
      <point x="478" y="508" type="curve" smooth="yes"/>
      <point x="478" y="23" type="line" smooth="yes"/>
      <point x="478" y="9"/>
      <point x="467" y="-2"/>
      <point x="453" y="-2" type="curve" smooth="yes"/>
      <point x="440" y="-2"/>
      <point x="428" y="10"/>
    </contour>
  </outline>
</glyph>
<glyph name="knBI" format="1">
  <advance width="769"/>
  <outline>
    <contour>
      <point x="75" y="417" type="curve" smooth="yes"/>
      <point x="105" y="451"/>
      <point x="140" y="471"/>
      <point x="183" y="471" type="curve" smooth="yes"/>
      <point x="251" y="471"/>
      <point x="291" y="426"/>
      <point x="291" y="371" type="curve" smooth="yes"/>
      <point x="291" y="327"/>
      <point x="269" y="288"/>
      <point x="203" y="235" type="curve" smooth="yes"/>
      <point x="162" y="202"/>
      <point x="133" y="167"/>
      <point x="133" y="125" type="curve" smooth="yes"/>
      <point x="133" y="81"/>
      <point x="165" y="46"/>
      <point x="222" y="46" type="curve" smooth="yes"/>
      <point x="281" y="46"/>
      <point x="323" y="77"/>
      <point x="359" y="136" type="curve" smooth="yes"/>
      <point x="363" y="142"/>
      <point x="372" y="147"/>
      <point x="379" y="147" type="curve" smooth="yes"/>
      <point x="384" y="147" type="line" smooth="yes"/>
      <point x="391" y="147"/>
      <point x="400" y="142"/>
      <point x="404" y="135" type="curve" smooth="yes"/>
      <point x="438" y="76"/>
      <point x="478" y="46"/>
      <point x="536" y="46" type="curve" smooth="yes"/>
      <point x="611" y="46"/>
      <point x="656" y="106"/>
      <point x="656" y="229" type="curve" smooth="yes"/>
      <point x="656" y="325"/>
      <point x="611" y="457"/>
      <point x="539" y="529" type="curve" smooth="yes"/>
      <point x="496" y="572"/>
      <point x="465" y="588"/>
      <point x="427" y="588" type="curve" smooth="yes"/>
      <point x="383" y="588"/>
      <point x="360" y="555"/>
      <point x="360" y="527" type="curve" smooth="yes"/>
      <point x="360" y="497"/>
      <point x="384" y="469"/>
      <point x="425" y="469" type="curve" smooth="yes"/>
      <point x="470" y="469"/>
      <point x="505" y="498"/>
      <point x="538" y="552" type="curve" smooth="yes"/>
      <point x="545" y="563"/>
      <point x="560" y="566"/>
      <point x="570" y="560" type="curve" smooth="yes"/>
      <point x="581" y="553"/>
      <point x="584" y="538"/>
      <point x="578" y="528" type="curve" smooth="yes"/>
      <point x="533" y="456"/>
      <point x="484" y="423"/>
      <point x="425" y="423" type="curve" smooth="yes"/>
      <point x="352" y="423"/>
      <point x="314" y="475"/>
      <point x="314" y="527" type="curve" smooth="yes"/>
      <point x="314" y="575"/>
      <point x="351" y="634"/>
      <point x="427" y="634" type="curve" smooth="yes"/>
      <point x="475" y="634"/>
      <point x="516" y="616"/>
      <point x="571" y="561" type="curve" smooth="yes"/>
      <point x="651" y="481"/>
      <point x="702" y="335"/>
      <point x="702" y="229" type="curve" smooth="yes"/>
      <point x="702" y="58"/>
      <point x="629" y="0"/>
      <point x="536" y="0" type="curve" smooth="yes"/>
      <point x="462" y="0"/>
      <point x="408" y="36"/>
      <point x="364" y="113" type="curve"/>
      <point x="384" y="101" type="line"/>
      <point x="379" y="101" type="line"/>
      <point x="399" y="112" type="line"/>
      <point x="351" y="35"/>
      <point x="297" y="0"/>
      <point x="222" y="0" type="curve" smooth="yes"/>
      <point x="133" y="0"/>
      <point x="87" y="59"/>
      <point x="87" y="125" type="curve" smooth="yes"/>
      <point x="87" y="179"/>
      <point x="120" y="226"/>
      <point x="175" y="271" type="curve" smooth="yes"/>
      <point x="223" y="310"/>
      <point x="245" y="337"/>
      <point x="245" y="371" type="curve" smooth="yes"/>
      <point x="245" y="402"/>
      <point x="219" y="425"/>
      <point x="183" y="425" type="curve" smooth="yes"/>
      <point x="154" y="425"/>
      <point x="129" y="409"/>
      <point x="109" y="387" type="curve" smooth="yes"/>
      <point x="101" y="377"/>
      <point x="86" y="377"/>
      <point x="77" y="385" type="curve" smooth="yes"/>
      <point x="67" y="393"/>
      <point x="67" y="408"/>
    </contour>
  </outline>
</glyph>
<glyph name="knCAc2" format="1">
  <advance width="0"/>
  <outline>
    <contour>
      <point x="-18" y="-184" type="curve" smooth="yes"/>
      <point x="156" y="-184" type="line" smooth="yes"/>
      <point x="167" y="-184"/>
      <point x="177" y="-194"/>
      <point x="177" y="-205" type="curve" smooth="yes"/>
      <point x="177" y="-216"/>
      <point x="167" y="-226"/>
      <point x="156" y="-226" type="curve" smooth="yes"/>
      <point x="-18" y="-226" type="line" smooth="yes"/>
      <point x="-29" y="-226"/>
      <point x="-39" y="-216"/>
      <point x="-39" y="-205" type="curve" smooth="yes"/>
      <point x="-39" y="-194"/>
      <point x="-29" y="-184"/>
    </contour>
    <contour>
      <point x="-291" y="-116" type="curve" smooth="yes"/>
      <point x="-269" y="-105"/>
      <point x="-248" y="-100"/>
      <point x="-220" y="-100" type="curve" smooth="yes"/>
      <point x="-173" y="-100"/>
      <point x="-137" y="-132"/>
      <point x="-137" y="-171" type="curve" smooth="yes"/>
      <point x="-137" y="-197"/>
      <point x="-156" y="-225"/>
      <point x="-203" y="-250" type="curve" smooth="yes"/>
      <point x="-225" y="-261"/>
      <point x="-242" y="-278"/>
      <point x="-242" y="-298" type="curve" smooth="yes"/>
      <point x="-242" y="-322"/>
      <point x="-219" y="-335"/>
      <point x="-188" y="-335" type="curve" smooth="yes"/>
      <point x="-154" y="-335"/>
      <point x="-124" y="-321"/>
      <point x="-90" y="-290" type="curve" smooth="yes"/>
      <point x="-87" y="-286"/>
      <point x="-81" y="-284"/>
      <point x="-76" y="-284" type="curve" smooth="yes"/>
      <point x="-72" y="-284" type="line" smooth="yes"/>
      <point x="-67" y="-284"/>
      <point x="-61" y="-287"/>
      <point x="-57" y="-290" type="curve" smooth="yes"/>
      <point x="-26" y="-321"/>
      <point x="6" y="-335"/>
      <point x="39" y="-335" type="curve" smooth="yes"/>
      <point x="74" y="-335"/>
      <point x="95" y="-315"/>
      <point x="95" y="-285" type="curve" smooth="yes"/>
      <point x="95" y="-261"/>
      <point x="83" y="-241"/>
      <point x="69" y="-221" type="curve" smooth="yes"/>
      <point x="62" y="-212"/>
      <point x="65" y="-198"/>
      <point x="74" y="-192" type="curve" smooth="yes"/>
      <point x="83" y="-185"/>
      <point x="97" y="-188"/>
      <point x="103" y="-197" type="curve" smooth="yes"/>
      <point x="123" y="-225"/>
      <point x="137" y="-253"/>
      <point x="137" y="-285" type="curve" smooth="yes"/>
      <point x="137" y="-337"/>
      <point x="104" y="-377"/>
      <point x="39" y="-377" type="curve" smooth="yes"/>
      <point x="-4" y="-377"/>
      <point x="-46" y="-361"/>
      <point x="-87" y="-320" type="curve"/>
      <point x="-72" y="-326" type="line"/>
      <point x="-76" y="-326" type="line"/>
      <point x="-62" y="-320" type="line"/>
      <point x="-106" y="-361"/>
      <point x="-144" y="-377"/>
      <point x="-188" y="-377" type="curve" smooth="yes"/>
      <point x="-253" y="-377"/>
      <point x="-284" y="-340"/>
      <point x="-284" y="-298" type="curve" smooth="yes"/>
      <point x="-284" y="-264"/>
      <point x="-261" y="-233"/>
      <point x="-223" y="-212" type="curve" smooth="yes"/>
      <point x="-198" y="-199"/>
      <point x="-179" y="-187"/>
      <point x="-179" y="-171" type="curve" smooth="yes"/>
      <point x="-179" y="-152"/>
      <point x="-201" y="-142"/>
      <point x="-220" y="-142" type="curve" smooth="yes"/>
      <point x="-240" y="-142"/>
      <point x="-255" y="-145"/>
      <point x="-271" y="-154" type="curve" smooth="yes"/>
      <point x="-281" y="-159"/>
      <point x="-294" y="-155"/>
      <point x="-300" y="-145" type="curve" smooth="yes"/>
      <point x="-305" y="-135"/>
      <point x="-301" y="-122"/>
    </contour>
  </outline>
</glyph>
<glyph name="knJHA.base" format="1">
  <advance width="1212"/>
  <outline>
    <contour>
      <point x="964" y="456" type="curve" smooth="yes"/>
      <point x="1025" y="456" type="line" smooth="yes"/>
      <point x="1037" y="456"/>
      <point x="1048" y="445"/>
      <point x="1048" y="433" type="curve" smooth="yes"/>
      <point x="1048" y="421"/>
      <point x="1037" y="410"/>
      <point x="1025" y="410" type="curve" smooth="yes"/>
      <point x="964" y="410" type="line" smooth="yes"/>
      <point x="952" y="410"/>
      <point x="941" y="421"/>
      <point x="941" y="433" type="curve" smooth="yes"/>
      <point x="941" y="445"/>
      <point x="952" y="456"/>
    </contour>
    <component base="knJHA"/>
    <component base="knJHA"/>
  </outline>
</glyph>
<glyph name="knLAc2" format="1">
  <advance width="0"/>
  <outline>
    <contour>
      <point x="54" y="-295" type="curve" smooth="yes"/>
      <point x="58" y="-278"/>
      <point x="63" y="-268"/>
      <point x="63" y="-247" type="curve" smooth="yes"/>
      <point x="63" y="-203"/>
      <point x="36" y="-175"/>
      <point x="-13" y="-175" type="curve" smooth="yes"/>
      <point x="-62" y="-175"/>
      <point x="-91" y="-209"/>
      <point x="-118" y="-261" type="curve" smooth="yes"/>
      <point x="-122" y="-267"/>
      <point x="-130" y="-272"/>
      <point x="-137" y="-272" type="curve" smooth="yes"/>
      <point x="-142" y="-272" type="line" smooth="yes"/>
      <point x="-149" y="-272"/>
      <point x="-158" y="-267"/>
      <point x="-161" y="-260" type="curve" smooth="yes"/>
      <point x="-187" y="-208"/>
      <point x="-221" y="-174"/>
      <point x="-273" y="-174" type="curve" smooth="yes"/>
      <point x="-321" y="-174"/>
      <point x="-346" y="-203"/>
      <point x="-346" y="-239" type="curve" smooth="yes"/>
      <point x="-346" y="-260"/>
      <point x="-340" y="-274"/>
      <point x="-331" y="-291" type="curve" smooth="yes"/>
      <point x="-326" y="-301"/>
      <point x="-330" y="-314"/>
      <point x="-341" y="-319" type="curve" smooth="yes"/>
      <point x="-351" y="-324"/>
      <point x="-364" y="-320"/>
      <point x="-369" y="-309" type="curve" smooth="yes"/>
      <point x="-380" y="-286"/>
      <point x="-388" y="-268"/>
      <point x="-388" y="-239" type="curve" smooth="yes"/>
      <point x="-388" y="-183"/>
      <point x="-353" y="-132"/>
      <point x="-273" y="-132" type="curve" smooth="yes"/>
      <point x="-205" y="-132"/>
      <point x="-157" y="-172"/>
      <point x="-123" y="-242" type="curve"/>
      <point x="-142" y="-230" type="line"/>
      <point x="-137" y="-230" type="line"/>
      <point x="-156" y="-241" type="line"/>
      <point x="-119" y="-171"/>
      <point x="-76" y="-133"/>
      <point x="-13" y="-133" type="curve" smooth="yes"/>
      <point x="64" y="-133"/>
      <point x="105" y="-179"/>
      <point x="105" y="-247" type="curve" smooth="yes"/>
      <point x="105" y="-272"/>
      <point x="100" y="-284"/>
      <point x="94" y="-305" type="curve" smooth="yes"/>
      <point x="91" y="-316"/>
      <point x="80" y="-323"/>
      <point x="69" y="-320" type="curve" smooth="yes"/>
      <point x="58" y="-317"/>
      <point x="51" y="-306"/>
    </contour>
  </outline>
</glyph>
<glyph name="knNAc2" format="1">
  <advance width="114"/>
  <outline>
    <contour>
      <point x="175" y="-341" type="curve" smooth="yes"/>
      <point x="66" y="-227"/>
      <point x="-14" y="-181"/>
      <point x="-92" y="-181" type="curve" smooth="yes"/>
      <point x="-151" y="-181"/>
      <point x="-189" y="-205"/>
      <point x="-189" y="-241" type="curve" smooth="yes"/>
      <point x="-189" y="-277"/>
      <point x="-148" y="-302"/>
      <point x="-90" y="-302" type="curve" smooth="yes"/>
      <point x="5" y="-302"/>
      <point x="73" y="-238"/>
      <point x="73" y="-156" type="curve" smooth="yes"/>
      <point x="73" y="-96"/>
      <point x="60" y="-29"/>
      <point x="35" y="37" type="curve" smooth="yes"/>
      <point x="31" y="47"/>
      <point x="37" y="60"/>
      <point x="48" y="64" type="curve" smooth="yes"/>
      <point x="58" y="68"/>
      <point x="71" y="62"/>
      <point x="75" y="51" type="curve" smooth="yes"/>
      <point x="102" y="-19"/>
      <point x="115" y="-92"/>
      <point x="115" y="-156" type="curve" smooth="yes"/>
      <point x="115" y="-260"/>
      <point x="33" y="-344"/>
      <point x="-90" y="-344" type="curve" smooth="yes"/>
      <point x="-188" y="-344"/>
      <point x="-231" y="-293"/>
      <point x="-231" y="-241" type="curve" smooth="yes"/>
      <point x="-231" y="-189"/>
      <point x="-193" y="-139"/>
      <point x="-92" y="-139" type="curve" smooth="yes"/>
      <point x="-6" y="-139"/>
      <point x="84" y="-185"/>
      <point x="205" y="-311" type="curve" smooth="yes"/>
      <point x="213" y="-320"/>
      <point x="213" y="-333"/>
      <point x="205" y="-341" type="curve" smooth="yes"/>
      <point x="196" y="-349"/>
      <point x="183" y="-349"/>
    </contour>
  </outline>
</glyph>
<glyph name="knNGAc2" format="1">
  <advance width="0"/>
  <outline>
    <contour>
      <point x="-37" y="-239" type="curve" smooth="yes"/>
      <point x="-54" y="-239"/>
      <point x="-69" y="-226"/>
      <point x="-69" y="-206" type="curve" smooth="yes"/>
      <point x="-69" y="-189"/>
      <point x="-54" y="-174"/>
      <point x="-37" y="-174" type="curve" smooth="yes"/>
      <point x="-20" y="-174"/>
      <point x="-5" y="-189"/>
      <point x="-5" y="-206" type="curve" smooth="yes"/>
      <point x="-5" y="-226"/>
      <point x="-21" y="-239"/>
    </contour>
    <contour>
      <point x="-177" y="-174" type="curve" smooth="yes"/>
      <point x="-126" y="-109"/>
      <point x="-79" y="-82"/>
      <point x="-27" y="-82" type="curve" smooth="yes"/>
      <point x="19" y="-82"/>
      <point x="61" y="-108"/>
      <point x="103" y="-149" type="curve" smooth="yes"/>
      <point x="111" y="-157"/>
      <point x="111" y="-171"/>
      <point x="103" y="-179" type="curve" smooth="yes"/>
      <point x="95" y="-187"/>
      <point x="81" y="-187"/>
      <point x="73" y="-179" type="curve" smooth="yes"/>
      <point x="41" y="-148"/>
      <point x="9" y="-124"/>
      <point x="-27" y="-124" type="curve" smooth="yes"/>
      <point x="-69" y="-124"/>
      <point x="-104" y="-149"/>
      <point x="-145" y="-200" type="curve" smooth="yes"/>
      <point x="-152" y="-209"/>
      <point x="-165" y="-211"/>
      <point x="-174" y="-203" type="curve" smooth="yes"/>
      <point x="-183" y="-196"/>
      <point x="-185" y="-183"/>
    </contour>
    <contour>
      <point x="-291" y="-116" type="curve" smooth="yes"/>
      <point x="-269" y="-105"/>
      <point x="-248" y="-100"/>
      <point x="-220" y="-100" type="curve" smooth="yes"/>
      <point x="-173" y="-100"/>
      <point x="-137" y="-132"/>
      <point x="-137" y="-171" type="curve" smooth="yes"/>
      <point x="-137" y="-197"/>
      <point x="-156" y="-225"/>
      <point x="-203" y="-250" type="curve" smooth="yes"/>
      <point x="-225" y="-261"/>
      <point x="-242" y="-278"/>
      <point x="-242" y="-298" type="curve" smooth="yes"/>
      <point x="-242" y="-322"/>
      <point x="-219" y="-335"/>
      <point x="-188" y="-335" type="curve" smooth="yes"/>
      <point x="-154" y="-335"/>
      <point x="-124" y="-321"/>
      <point x="-90" y="-290" type="curve" smooth="yes"/>
      <point x="-87" y="-286"/>
      <point x="-81" y="-284"/>
      <point x="-76" y="-284" type="curve" smooth="yes"/>
      <point x="-72" y="-284" type="line" smooth="yes"/>
      <point x="-67" y="-284"/>
      <point x="-61" y="-287"/>
      <point x="-57" y="-290" type="curve" smooth="yes"/>
      <point x="-26" y="-321"/>
      <point x="6" y="-335"/>
      <point x="39" y="-335" type="curve" smooth="yes"/>
      <point x="73" y="-335"/>
      <point x="95" y="-316"/>
      <point x="95" y="-290" type="curve" smooth="yes"/>
      <point x="95" y="-282"/>
      <point x="94" y="-276"/>
      <point x="92" y="-268" type="curve" smooth="yes"/>
      <point x="89" y="-257"/>
      <point x="95" y="-245"/>
      <point x="106" y="-242" type="curve" smooth="yes"/>
      <point x="117" y="-239"/>
      <point x="129" y="-245"/>
      <point x="132" y="-256" type="curve" smooth="yes"/>
      <point x="136" y="-268"/>
      <point x="137" y="-278"/>
      <point x="137" y="-290" type="curve" smooth="yes"/>
      <point x="137" y="-336"/>
      <point x="105" y="-377"/>
      <point x="39" y="-377" type="curve" smooth="yes"/>
      <point x="-4" y="-377"/>
      <point x="-46" y="-361"/>
      <point x="-87" y="-320" type="curve"/>
      <point x="-72" y="-326" type="line"/>
      <point x="-76" y="-326" type="line"/>
      <point x="-62" y="-320" type="line"/>
      <point x="-106" y="-361"/>
      <point x="-144" y="-377"/>
      <point x="-188" y="-377" type="curve" smooth="yes"/>
      <point x="-253" y="-377"/>
      <point x="-284" y="-340"/>
      <point x="-284" y="-298" type="curve" smooth="yes"/>
      <point x="-284" y="-264"/>
      <point x="-261" y="-233"/>
      <point x="-223" y="-212" type="curve" smooth="yes"/>
      <point x="-198" y="-199"/>
      <point x="-179" y="-187"/>
      <point x="-179" y="-171" type="curve" smooth="yes"/>
      <point x="-179" y="-152"/>
      <point x="-201" y="-142"/>
      <point x="-220" y="-142" type="curve" smooth="yes"/>
      <point x="-240" y="-142"/>
      <point x="-255" y="-145"/>
      <point x="-271" y="-154" type="curve" smooth="yes"/>
      <point x="-281" y="-159"/>
      <point x="-294" y="-155"/>
      <point x="-300" y="-145" type="curve" smooth="yes"/>
      <point x="-305" y="-135"/>
      <point x="-301" y="-122"/>
    </contour>
    <contour>
      <point x="-37" y="-197" type="curve" smooth="yes"/>
      <point x="-42" y="-197"/>
      <point x="-47" y="-200"/>
      <point x="-47" y="-206" type="curve" smooth="yes"/>
      <point x="-47" y="-211"/>
      <point x="-42" y="-216"/>
      <point x="-37" y="-216" type="curve" smooth="yes"/>
      <point x="-32" y="-216"/>
      <point x="-27" y="-211"/>
      <point x="-27" y="-206" type="curve" smooth="yes"/>
      <point x="-27" y="-200"/>
      <point x="-33" y="-197"/>
    </contour>
  </outline>
</glyph>
<glyph name="knNYA.base" format="1">
  <advance width="901"/>
  <outline>
    <contour>
      <point x="744" y="456" type="curve" smooth="yes"/>
      <point x="875" y="456" type="line" smooth="yes"/>
      <point x="887" y="456"/>
      <point x="898" y="445"/>
      <point x="898" y="433" type="curve" smooth="yes"/>
      <point x="898" y="421"/>
      <point x="887" y="410"/>
      <point x="875" y="410" type="curve" smooth="yes"/>
      <point x="744" y="410" type="line" smooth="yes"/>
      <point x="732" y="410"/>
      <point x="721" y="421"/>
      <point x="721" y="433" type="curve" smooth="yes"/>
      <point x="721" y="445"/>
      <point x="732" y="456"/>
    </contour>
    <component base="knNYA"/>
    <component base="knNYA"/>
  </outline>
</glyph>
<glyph name="knRRAc2" format="1">
  <advance width="0"/>
  <outline>
    <contour>
      <point x="-250" y="-204" type="curve" smooth="yes"/>
      <point x="138" y="-204" type="line" smooth="yes"/>
      <point x="149" y="-204"/>
      <point x="159" y="-214"/>
      <point x="159" y="-225" type="curve" smooth="yes"/>
      <point x="159" y="-236"/>
      <point x="149" y="-246"/>
      <point x="138" y="-246" type="curve" smooth="yes"/>
      <point x="-250" y="-246" type="line" smooth="yes"/>
      <point x="-261" y="-246"/>
      <point x="-271" y="-236"/>
      <point x="-271" y="-225" type="curve" smooth="yes"/>
      <point x="-271" y="-214"/>
      <point x="-261" y="-204"/>
    </contour>
    <contour>
      <point x="-151" y="-209" type="curve" smooth="yes"/>
      <point x="-142" y="-201"/>
      <point x="-131" y="-190"/>
      <point x="-131" y="-175" type="curve" smooth="yes"/>
      <point x="-131" y="-154"/>
      <point x="-144" y="-140"/>
      <point x="-169" y="-140" type="curve" smooth="yes"/>
      <point x="-209" y="-140"/>
      <point x="-240" y="-183"/>
      <point x="-240" y="-247" type="curve" smooth="yes"/>
      <point x="-240" y="-302"/>
      <point x="-206" y="-335"/>
      <point x="-159" y="-335" type="curve" smooth="yes"/>
      <point x="-121" y="-335"/>
      <point x="-98" y="-321"/>
      <point x="-77" y="-296" type="curve" smooth="yes"/>
      <point x="-74" y="-291"/>
      <point x="-66" y="-288"/>
      <point x="-61" y="-288" type="curve" smooth="yes"/>
      <point x="-58" y="-288" type="line" smooth="yes"/>
      <point x="-53" y="-288"/>
      <point x="-46" y="-291"/>
      <point x="-42" y="-295" type="curve" smooth="yes"/>
      <point x="-20" y="-320"/>
      <point x="1" y="-335"/>
      <point x="40" y="-335" type="curve" smooth="yes"/>
      <point x="87" y="-335"/>
      <point x="121" y="-302"/>
      <point x="121" y="-247" type="curve" smooth="yes"/>
      <point x="121" y="-183"/>
      <point x="90" y="-140"/>
      <point x="50" y="-140" type="curve" smooth="yes"/>
      <point x="25" y="-140"/>
      <point x="13" y="-155"/>
      <point x="13" y="-175" type="curve" smooth="yes"/>
      <point x="13" y="-192"/>
      <point x="21" y="-204"/>
      <point x="26" y="-214" type="curve" smooth="yes"/>
      <point x="32" y="-224"/>
      <point x="28" y="-237"/>
      <point x="18" y="-242" type="curve" smooth="yes"/>
      <point x="8" y="-248"/>
      <point x="-5" y="-244"/>
      <point x="-10" y="-234" type="curve" smooth="yes"/>
      <point x="-19" y="-218"/>
      <point x="-29" y="-200"/>
      <point x="-29" y="-175" type="curve"/>
      <point x="-29" y="-131"/>
      <point x="-5" y="-98"/>
      <point x="50" y="-98" type="curve" smooth="yes"/>
      <point x="106" y="-98"/>
      <point x="163" y="-145"/>
      <point x="163" y="-247" type="curve" smooth="yes"/>
      <point x="163" y="-330"/>
      <point x="109" y="-377"/>
      <point x="40" y="-377" type="curve" smooth="yes"/>
      <point x="-13" y="-377"/>
      <point x="-44" y="-358"/>
      <point x="-74" y="-323" type="curve"/>
      <point x="-58" y="-330" type="line"/>
      <point x="-61" y="-330" type="line"/>
      <point x="-45" y="-322" type="line"/>
      <point x="-74" y="-357"/>
      <point x="-105" y="-377"/>
      <point x="-159" y="-377" type="curve" smooth="yes"/>
      <point x="-228" y="-377"/>
      <point x="-282" y="-330"/>
      <point x="-282" y="-247" type="curve" smooth="yes"/>
      <point x="-282" y="-145"/>
      <point x="-225" y="-98"/>
      <point x="-169" y="-98" type="curve" smooth="yes"/>
      <point x="-114" y="-98"/>
      <point x="-89" y="-132"/>
      <point x="-89" y="-175" type="curve" smooth="yes"/>
      <point x="-89" y="-204"/>
      <point x="-106" y="-227"/>
      <point x="-123" y="-241" type="curve" smooth="yes"/>
      <point x="-132" y="-248"/>
      <point x="-146" y="-247"/>
      <point x="-153" y="-239" type="curve" smooth="yes"/>
      <point x="-160" y="-230"/>
      <point x="-159" y="-216"/>
    </contour>
  </outline>
</glyph>
<glyph name="knTTHAc2" format="1">
  <advance width="0"/>
  <outline>
    <contour>
      <point x="-78" y="-92" type="curve" smooth="yes"/>
      <point x="30" y="-92"/>
      <point x="80" y="-176"/>
      <point x="80" y="-242" type="curve" smooth="yes"/>
      <point x="80" y="-309"/>
      <point x="29" y="-387"/>
      <point x="-76" y="-387" type="curve" smooth="yes"/>
      <point x="-187" y="-387"/>
      <point x="-235" y="-310"/>
      <point x="-235" y="-242" type="curve" smooth="yes"/>
      <point x="-235" y="-177"/>
      <point x="-186" y="-92"/>
    </contour>
    <contour>
      <point x="-78" y="-270" type="curve" smooth="yes"/>
      <point x="-97" y="-270"/>
      <point x="-109" y="-258"/>
      <point x="-109" y="-239" type="curve" smooth="yes"/>
      <point x="-109" y="-220"/>
      <point x="-97" y="-208"/>
      <point x="-78" y="-208" type="curve" smooth="yes"/>
      <point x="-63" y="-208"/>
      <point x="-47" y="-220"/>
      <point x="-47" y="-239" type="curve" smooth="yes"/>
      <point x="-47" y="-258"/>
      <point x="-63" y="-270"/>
    </contour>
    <contour>
      <point x="-78" y="-134" type="curve" smooth="yes"/>
      <point x="-156" y="-134"/>
      <point x="-193" y="-195"/>
      <point x="-193" y="-242" type="curve" smooth="yes"/>
      <point x="-193" y="-292"/>
      <point x="-155" y="-345"/>
      <point x="-76" y="-345" type="curve" smooth="yes"/>
      <point x="-1" y="-345"/>
      <point x="38" y="-291"/>
      <point x="38" y="-242" type="curve" smooth="yes"/>
      <point x="38" y="-194"/>
      <point x="0" y="-134"/>
    </contour>
    <contour>
      <point x="-78" y="-228" type="curve" smooth="yes"/>
      <point x="-84" y="-228"/>
      <point x="-89" y="-232"/>
      <point x="-89" y="-239" type="curve" smooth="yes"/>
      <point x="-89" y="-246"/>
      <point x="-84" y="-250"/>
      <point x="-78" y="-250" type="curve" smooth="yes"/>
      <point x="-71" y="-250"/>
      <point x="-67" y="-246"/>
      <point x="-67" y="-239" type="curve" smooth="yes"/>
      <point x="-67" y="-232"/>
      <point x="-71" y="-228"/>
    </contour>
  </outline>
</glyph>
<glyph name="ringcmb.cap" format="1">
  <advance width="0"/>
  <outline>
    <contour>
      <point x="104" y="666" type="curve" smooth="yes"/>
      <point x="104" y="615"/>
      <point x="64" y="566"/>
      <point x="-5" y="566" type="curve" smooth="yes"/>
      <point x="-72" y="566"/>
      <point x="-111" y="618"/>
      <point x="-111" y="666" type="curve" smooth="yes"/>
      <point x="-111" y="714"/>
      <point x="-72" y="766"/>
      <point x="-5" y="766" type="curve" smooth="yes"/>
      <point x="64" y="766"/>
      <point x="104" y="717"/>
    </contour>
    <contour>
      <point x="60" y="666" type="curve" smooth="yes"/>
      <point x="60" y="697"/>
      <point x="34" y="722"/>
      <point x="-5" y="722" type="curve" smooth="yes"/>
      <point x="-42" y="722"/>
      <point x="-67" y="694"/>
      <point x="-67" y="666" type="curve" smooth="yes"/>
      <point x="-67" y="638"/>
      <point x="-42" y="610"/>
      <point x="-5" y="610" type="curve" smooth="yes"/>
      <point x="34" y="610"/>
      <point x="60" y="635"/>
    </contour>
  </outline>
</glyph>
<glyph name="uni2126" format="1">
  <advance width="630"/>
  <outline>
    <contour>
      <point x="414" y="48" type="curve" smooth="yes"/>
      <point x="558" y="48" type="line" smooth="yes"/>
      <point x="572" y="48"/>
      <point x="583" y="37"/>
      <point x="583" y="23" type="curve" smooth="yes"/>
      <point x="583" y="10"/>
      <point x="572" y="-2"/>
      <point x="558" y="-2" type="curve" smooth="yes"/>
      <point x="414" y="-2" type="line" smooth="yes"/>
      <point x="401" y="-2"/>
      <point x="389" y="10"/>
      <point x="389" y="23" type="curve" smooth="yes"/>
      <point x="389" y="37"/>
      <point x="401" y="48"/>
    </contour>
    <contour>
      <point x="87" y="48" type="curve" smooth="yes"/>
      <point x="232" y="48" type="line" smooth="yes"/>
      <point x="246" y="48"/>
      <point x="257" y="37"/>
      <point x="257" y="23" type="curve" smooth="yes"/>
      <point x="257" y="10"/>
      <point x="246" y="-2"/>
      <point x="232" y="-2" type="curve" smooth="yes"/>
      <point x="87" y="-2" type="line" smooth="yes"/>
      <point x="74" y="-2"/>
      <point x="62" y="10"/>
      <point x="62" y="23" type="curve" smooth="yes"/>
      <point x="62" y="37"/>
      <point x="74" y="48"/>
    </contour>
    <contour>
      <point x="387" y="40" type="curve" smooth="yes"/>
      <point x="449" y="108"/>
      <point x="514" y="195"/>
      <point x="514" y="298" type="curve" smooth="yes"/>
      <point x="514" y="406"/>
      <point x="431" y="492"/>
      <point x="317" y="492" type="curve" smooth="yes"/>
      <point x="192" y="492"/>
      <point x="116" y="407"/>
      <point x="116" y="298" type="curve" smooth="yes"/>
      <point x="116" y="192"/>
      <point x="188" y="108"/>
      <point x="257" y="41" type="curve" smooth="yes"/>
      <point x="267" y="32"/>
      <point x="267" y="15"/>
      <point x="258" y="6" type="curve" smooth="yes"/>
      <point x="249" y="-4"/>
      <point x="232" y="-4"/>
      <point x="223" y="5" type="curve" smooth="yes"/>
      <point x="144" y="82"/>
      <point x="66" y="178"/>
      <point x="66" y="298" type="curve" smooth="yes"/>
      <point x="66" y="433"/>
      <point x="160" y="542"/>
      <point x="317" y="542" type="curve" smooth="yes"/>
      <point x="461" y="542"/>
      <point x="564" y="434"/>
      <point x="564" y="298" type="curve" smooth="yes"/>
      <point x="564" y="183"/>
      <point x="495" y="84"/>
      <point x="423" y="6" type="curve" smooth="yes"/>
      <point x="414" y="-4"/>
      <point x="398" y="-5"/>
      <point x="388" y="5" type="curve" smooth="yes"/>
      <point x="378" y="14"/>
      <point x="377" y="30"/>
    </contour>
  </outline>
</glyph>
